<svg preserveAspectRatio="none" width="100%" height="100%" overflow="visible" style="display: block;" viewBox="0 0 50 50" fill="none" xmlns="http://www.w3.org/2000/svg">
<g id="Frame">
<path id="Vector" d="M25 18.4912C21.416 18.4912 18.4912 21.416 18.4912 25C18.4912 28.584 21.416 31.5088 25 31.5088C28.584 31.5088 31.5088 28.584 31.5088 25C31.5088 21.416 28.584 18.4912 25 18.4912Z" fill="var(--fill-0, #202428)"/>
<path id="Vector_2" d="M44.9978 25C44.9978 22.2381 45.0228 19.5013 44.8677 16.7444C44.7126 13.5423 43.9821 10.7003 41.6406 8.35876C39.294 6.01217 36.4572 5.28668 33.2551 5.13158C30.4932 4.97647 27.7564 5.00149 24.9996 5.00149C22.2378 5.00149 19.501 4.97647 16.7442 5.13158C13.5421 5.28668 10.7002 6.01717 8.35869 8.35876C6.01215 10.7053 5.28668 13.5423 5.13157 16.7444C4.97647 19.5063 5.00149 22.2431 5.00149 25C5.00149 27.7569 4.97647 30.4987 5.13157 33.2556C5.28668 36.4577 6.01716 39.2997 8.35869 41.6412C10.7052 43.9878 13.5421 44.7133 16.7442 44.8684C19.506 45.0235 22.2428 44.9985 24.9996 44.9985C27.7614 44.9985 30.4982 45.0235 33.2551 44.8684C36.4572 44.7133 39.299 43.9828 41.6406 41.6412C43.9871 39.2947 44.7126 36.4577 44.8677 33.2556C45.0278 30.4987 44.9978 27.7619 44.9978 25ZM24.9946 35.2619C19.3159 35.2619 14.7329 30.6788 14.7329 25C14.7329 19.3212 19.3159 14.7381 24.9946 14.7381C30.6734 14.7381 35.2564 19.3212 35.2564 25C35.2564 30.6788 30.6734 35.2619 24.9946 35.2619ZM35.6766 16.7144C34.3508 16.7144 33.2801 15.6437 33.2801 14.3178C33.2801 12.9919 34.3508 11.9212 35.6766 11.9212C37.0025 11.9212 38.0732 12.9919 38.0732 14.3178C38.0682 15.6487 37.0025 16.7144 35.6766 16.7144Z" fill="var(--fill-0, #202428)"/>
</g>
</svg>
