<svg preserveAspectRatio="none" width="100%" height="100%" overflow="visible" style="display: block;" viewBox="0 0 56.4721 36.923" fill="none" xmlns="http://www.w3.org/2000/svg">
<g id="Group">
<path id="Vector" d="M26.7968 36.923H38.3046C40.5635 36.923 42.5752 35.7402 43.6029 33.8013L47.1609 27.8874C47.7669 26.7434 46.841 25.2891 45.5079 25.2891H34.0001C31.7412 25.2891 29.7295 26.4719 28.7018 28.4109L25.1438 34.3248C24.5378 35.4688 25.4637 36.923 26.7968 36.923Z" fill="var(--fill-0, #2C2C2C)"/>
<path id="Vector_2" d="M54.4951 9.55918H28.8715L34.6157 0H20.0733C17.8144 0 15.7203 1.18278 14.5569 3.12176L0 27.359H14.5424C16.8013 27.359 18.8954 26.1763 20.0588 24.2373L27.9068 11.1685H35.7936C37.1267 11.1685 37.9507 12.6228 37.2624 13.7668L32.6088 21.5179H50.748L56.1869 12.5404C56.977 11.2267 56.0318 9.55918 54.5 9.55918H54.4951Z" fill="var(--fill-0, #2C2C2C)"/>
</g>
</svg>
