<svg preserveAspectRatio="none" width="100%" height="100%" overflow="visible" style="display: block;" viewBox="0 0 162.194 9.23083" fill="none" xmlns="http://www.w3.org/2000/svg">
<g id="Group">
<path id="Vector" d="M16.4437 5.63401e-05V9.23083H13.7332V5.97822H2.72556V9.23083H0V5.63401e-05H2.72556V3.25266H13.7332V5.63401e-05H16.4437Z" fill="var(--fill-0, #2C2C2C)"/>
<g id="Vector_2">
</g>
<path id="Vector_3" d="M32.6917 2.7105H24.8313C24.3042 2.7105 23.8374 2.92132 23.4911 3.26766C23.1447 3.614 22.9339 4.08081 22.9339 4.60786C22.9339 5.1349 23.1447 5.60171 23.4911 5.94805C23.8374 6.29439 24.3042 6.50521 24.8313 6.50521H32.6917C33.2188 6.50521 33.6856 6.29439 34.0319 5.94805C34.3783 5.60171 34.5891 5.11984 34.5891 4.60786C34.5891 4.09587 34.3783 3.59895 34.0319 3.26766C33.6856 2.92132 33.2037 2.7105 32.6917 2.7105ZM24.8313 0H32.6917C33.9566 0 35.1161 0.527042 35.9443 1.35525C36.7876 2.19852 37.2996 3.35801 37.2996 4.60786C37.2996 5.8577 36.7876 7.01719 35.9443 7.86046C35.1011 8.70373 33.9566 9.21571 32.6917 9.21571H24.8313C23.5664 9.21571 22.4069 8.70373 21.5787 7.86046C20.7354 7.03225 20.2234 5.87276 20.2234 4.60786C20.2234 3.34295 20.7354 2.18346 21.5787 1.35525C22.4069 0.511984 23.5664 0 24.8313 0Z" fill="var(--fill-0, #2C2C2C)"/>
<path id="Vector_4" d="M41.0642 1.35525V0H43.7747V6.12875L55.3094 0H58.0952V9.23077H55.3847V3.02673L43.7145 9.23077H41.0642V1.35525Z" fill="var(--fill-0, #2C2C2C)"/>
<path id="Vector_5" d="M61.8597 1.35525V0H64.5702V6.12875L76.1049 0H78.9057V9.23077H76.1802V3.02673L64.5099 9.23077H61.8597V1.35525Z" fill="var(--fill-0, #2C2C2C)"/>
<path id="Vector_6" d="M99.7013 0V9.23077H96.9908V2.7105H92.5336V9.23077H89.8231V2.7105H85.3658V9.23077H82.6553V0H99.7013Z" fill="var(--fill-0, #2C2C2C)"/>
<path id="Vector_7" d="M115.934 2.7105H108.074C107.547 2.7105 107.08 2.92132 106.734 3.26766C106.387 3.614 106.177 4.08081 106.177 4.60786C106.177 5.1349 106.387 5.60171 106.734 5.94805C107.08 6.29439 107.547 6.50521 108.074 6.50521H115.934C116.461 6.50521 116.928 6.29439 117.275 5.94805C117.621 5.60171 117.832 5.11984 117.832 4.60786C117.832 4.09587 117.621 3.59895 117.275 3.26766C116.928 2.92132 116.446 2.7105 115.934 2.7105ZM108.074 0H115.934C117.199 0 118.359 0.527042 119.187 1.35525C120.015 2.19852 120.542 3.35801 120.542 4.60786C120.542 5.8577 120.03 7.01719 119.187 7.86046C118.344 8.70373 117.199 9.21571 115.934 9.21571H108.074C106.809 9.21571 105.65 8.70373 104.821 7.86046C103.978 7.03225 103.466 5.87276 103.466 4.60786C103.466 3.34295 103.978 2.18346 104.821 1.35525C105.65 0.511984 106.809 0 108.074 0Z" fill="var(--fill-0, #2C2C2C)"/>
<path id="Vector_8" d="M124.307 1.35525V0H127.032V6.12875L138.567 0H141.353V9.23077H138.642V3.02673L126.972 9.23077H124.307V1.35525Z" fill="var(--fill-0, #2C2C2C)"/>
<path id="Vector_9" d="M157.586 2.7105H149.725C149.198 2.7105 148.731 2.92132 148.385 3.26766C148.039 3.614 147.828 4.08081 147.828 4.60786C147.828 5.1349 148.039 5.60171 148.385 5.94805C148.731 6.29439 149.198 6.50521 149.725 6.50521H157.586C158.113 6.50521 158.58 6.29439 158.926 5.94805C159.272 5.60171 159.483 5.11984 159.483 4.60786C159.483 4.09587 159.272 3.59895 158.926 3.26766C158.58 2.92132 158.098 2.7105 157.586 2.7105ZM149.725 0H157.586C158.851 0 160.01 0.527042 160.838 1.35525C161.666 2.19852 162.194 3.35801 162.194 4.60786C162.194 5.8577 161.682 7.01719 160.838 7.86046C159.995 8.70373 158.851 9.21571 157.586 9.21571H149.725C148.46 9.21571 147.301 8.70373 146.473 7.86046C145.629 7.03225 145.117 5.87276 145.117 4.60786C145.117 3.34295 145.629 2.18346 146.473 1.35525C147.301 0.511984 148.46 0 149.725 0Z" fill="var(--fill-0, #2C2C2C)"/>
</g>
</svg>
